<?xml version="1.0" encoding="UTF-8"?> <svg xmlns="http://www.w3.org/2000/svg" width="487" height="128" viewBox="0 0 487 128" fill="none"> <g clip-path="url(#clip0)"> <path fill-rule="evenodd" clip-rule="evenodd" d="M168.3 11.26L180.83 9.75003L178.47 21.25L165.82 23.14L168.3 11.26ZM100.05 45.07C102.23 47.57 103.28 51.18 103.15 55.79C102.94 63.34 99.02 71.54 92.66 77.73C86 84.19 77.36 87.82 69.12 87.59C67.3937 87.5304 65.7023 87.0876 64.1682 86.2937C62.6341 85.4999 61.2957 84.3748 60.25 83C56.83 86.48 52.12 90.49 44.81 90.49C42.46 90.49 34.51 89.34 30.71 74.64L30.56 74L30.17 74.49C25.8492 79.9795 22.439 86.128 20.07 92.7L8.34 94.17L26.21 18.3L38.09 16.45L26.21 67L27 66C32.09 60.1 41.82 49.2 54.43 43.65C54.78 45.25 55.85 51.25 56.01 52.93C53.12 53.93 46.23 57.78 39.07 64.39L38.93 64.52V64.7C41.7 74.7 44.37 82.33 51.19 82.33C52.5147 82.3214 53.8227 82.0337 55.0288 81.4858C56.2349 80.9379 57.312 80.142 58.19 79.15C58.09 78.86 58 78.57 57.93 78.29C57.5319 76.7043 57.3337 75.075 57.34 73.44C57.76 57.9 70.17 41.12 89.46 41.12H90.38C94.62 41.24 97.87 42.57 100.05 45.07ZM90.16 57.39C89.93 65.61 83.09 81.73 75.36 81.73H75.21C74.467 81.7177 73.741 81.5061 73.1078 81.1173C72.4745 80.7286 71.9573 80.1769 71.61 79.52C70.72 78 70.31 75.74 70.39 72.8C70.6 65.16 76 46.49 85.15 46.49H85.34C86.1833 46.5265 86.9956 46.8186 87.669 47.3277C88.3424 47.8367 88.845 48.5386 89.11 49.34C89.9 51.15 90.25 53.86 90.11 57.34L90.16 57.39ZM4.8 107.57L0 128L205.12 83.82L210.75 74.4L202.4 47.91L202.52 47.77C207.38 42.22 212.52 35.96 217.52 29.9L217.59 29.81C219.91 27.0965 222.077 24.2554 224.08 21.3L211.33 23.07C208.33 27.47 204.33 33.25 200.08 39.2L199.73 39.69L195.04 25.37L182.84 27L192.06 49.88L191.94 50.02C182.53 62 176 67.79 172 67.88H171.93C171.615 67.8884 171.301 67.8253 171.014 67.6954C170.727 67.5655 170.472 67.3722 170.27 67.13C169.49 66.2 169.27 64.41 169.74 62.35C171.14 55.97 177.16 27.81 177.16 27.81L164.51 29.57C164.51 29.57 159.41 53.34 158.06 60C157.06 65 152.25 69.79 149.96 69.85H149.85C149.361 69.8397 148.88 69.7255 148.439 69.5152C147.998 69.3049 147.606 69.0032 147.29 68.63C146.691 67.8569 146.265 66.9635 146.042 66.0109C145.82 65.0582 145.805 64.0688 146 63.11C146.07 62.8 146.12 62.46 146.2 62.03L146.4 61.03C147.54 54.9 151.02 38.84 159.28 0.0300293L147.43 1.86003L147.37 2.12003C146.56 5.69003 145.79 9.04003 145.07 12.24L144.07 16.82C142.56 23.41 141.13 29.82 139.87 35.49L139.8 35.82L139.48 35.72C136.258 34.6681 132.854 34.2936 129.48 34.62C121.69 35.22 115.13 39.11 110.19 47.38C105.99 54.38 103.63 63.19 104.02 70.38C104.33 76.05 108.14 80.56 112.89 80.87H113.17C113.63 80.87 114.61 81.01 115.91 81.01C119.706 80.998 123.461 80.2335 126.959 78.7608C130.457 77.2881 133.629 75.1363 136.29 72.43L136.61 72.12L136.79 72.52C136.85 72.64 136.92 72.8 137 73C137.439 74.3801 138.337 75.5683 139.545 76.367C140.753 77.1656 142.198 77.5267 143.64 77.39H143.86C148.86 77.27 153.93 74.03 157.33 68.73L157.74 68.09L157.89 68.84C158.109 70.1894 158.651 71.4657 159.47 72.56C160.103 73.2954 160.897 73.8753 161.79 74.2551C162.683 74.6348 163.651 74.8042 164.62 74.75H164.86C173.37 74.55 182.47 68.97 194.37 56.69L194.7 56.35L202.42 75.91L4.8 107.57ZM121.28 75C116.73 75 116.64 69.48 116.58 66.51V65.95C116.29 53.58 124.22 39.79 131.72 39.61C134.67 39.53 137.08 40.61 138.24 42.48L138.3 42.59L138 43.92C137.28 47.42 137 48.73 136.08 52.48C133.59 66.38 126.46 75 121.28 75Z" fill="#663695"></path> <path d="M308 51.32H300.17L298.68 54.94H294.68L302.2 38.07H306L313.55 54.94H309.45L308 51.32ZM306.78 48.32L304.1 41.86L301.43 48.32H306.78Z" fill="#663695"></path> <path d="M319.24 53.23C318.539 52.462 318.001 51.5603 317.657 50.5791C317.314 49.5979 317.172 48.5574 317.24 47.52V38.07H321.14V47.37C321.14 50.39 322.393 51.9 324.9 51.9C325.418 51.9363 325.937 51.8563 326.42 51.666C326.902 51.4756 327.336 51.1798 327.69 50.8C328.43 49.8167 328.786 48.597 328.69 47.37V38.07H332.54V47.52C332.608 48.5574 332.466 49.5979 332.123 50.5791C331.779 51.5603 331.241 52.462 330.54 53.23C328.951 54.5237 326.964 55.2301 324.915 55.2301C322.866 55.2301 320.879 54.5237 319.29 53.23H319.24Z" fill="#663695"></path> <path d="M342 41.25H336.61V38.07H351.3V41.25H345.91V54.94H342V41.25Z" fill="#663695"></path> <path d="M359 54.09C357.634 53.3727 356.493 52.2933 355.7 50.97C355.091 49.9701 354.693 48.8565 354.53 47.6973C354.367 46.5382 354.442 45.358 354.751 44.2289C355.06 43.0998 355.596 42.0457 356.327 41.1312C357.057 40.2166 357.967 39.4608 359 38.91C360.462 38.1459 362.091 37.7576 363.74 37.78C365.383 37.7563 367.006 38.1448 368.46 38.91C369.838 39.6373 370.988 40.7308 371.784 42.07C372.579 43.4093 372.99 44.9423 372.97 46.5C372.99 48.0577 372.579 49.5907 371.784 50.93C370.988 52.2693 369.838 53.3628 368.46 54.09C367.008 54.8632 365.384 55.2555 363.74 55.23C362.089 55.2541 360.459 54.862 359 54.09ZM366.44 51.21C367.236 50.7623 367.891 50.1007 368.33 49.3C368.777 48.4362 369.011 47.4777 369.011 46.505C369.011 45.5323 368.777 44.5738 368.33 43.71C367.888 42.9091 367.234 42.245 366.44 41.79C365.61 41.3436 364.682 41.11 363.74 41.11C362.798 41.11 361.87 41.3436 361.04 41.79C360.243 42.2413 359.589 42.9063 359.15 43.71C358.696 44.5718 358.459 45.5311 358.459 46.505C358.459 47.4789 358.696 48.4382 359.15 49.3C359.575 50.0976 360.216 50.7594 361 51.21C361.828 51.6625 362.756 51.8997 363.7 51.8997C364.644 51.8997 365.572 51.6625 366.4 51.21H366.44Z" fill="#663695"></path> <path d="M393.63 54.94V44.82L388.63 53.15H386.87L382 45V54.91H378.33V38.07H381.56L387.88 48.55L394 38.07H397.21L397.26 54.94H393.63Z" fill="#663695"></path> <path d="M407.14 54.09C405.77 53.3784 404.627 52.2976 403.84 50.97C403.231 49.9701 402.833 48.8565 402.67 47.6973C402.507 46.5382 402.582 45.358 402.891 44.2289C403.2 43.0998 403.736 42.0457 404.467 41.1312C405.197 40.2166 406.107 39.4608 407.14 38.91C408.606 38.1668 410.226 37.7795 411.87 37.7795C413.514 37.7795 415.134 38.1668 416.6 38.91C417.953 39.6308 419.092 40.6969 419.9 42C420.509 42.9999 420.907 44.1136 421.07 45.2727C421.233 46.4318 421.158 47.6121 420.849 48.7411C420.54 49.8702 420.004 50.9243 419.273 51.8389C418.542 52.7535 417.633 53.5093 416.6 54.06C415.136 54.8095 413.515 55.2004 411.87 55.2004C410.225 55.2004 408.604 54.8095 407.14 54.06V54.09ZM414.57 51.21C415.366 50.7623 416.021 50.1007 416.46 49.3C416.914 48.4382 417.151 47.4789 417.151 46.505C417.151 45.5311 416.914 44.5718 416.46 43.71C416.017 42.9092 415.364 42.245 414.57 41.79C413.74 41.3436 412.812 41.11 411.87 41.11C410.928 41.11 410 41.3436 409.17 41.79C408.376 42.245 407.722 42.9092 407.28 43.71C406.833 44.5738 406.599 45.5323 406.599 46.505C406.599 47.4777 406.833 48.4362 407.28 49.3C407.719 50.1007 408.374 50.7623 409.17 51.21C409.998 51.6625 410.926 51.8997 411.87 51.8997C412.814 51.8997 413.742 51.6625 414.57 51.21Z" fill="#663695"></path> <path d="M429.7 41.25H424.31V38.07H439V41.25H433.61V54.94H429.7V41.25Z" fill="#663695"></path> <path d="M443.51 38.07H447.41V54.94H443.51V38.07Z" fill="#663695"></path> <path d="M469.94 38.07L462.64 54.94H458.79L451.51 38.07H455.73L460.86 50.07L466.06 38.07H469.94Z" fill="#663695"></path> <path d="M486.81 51.8V54.94H473.75V38.07H486.49V41.2H477.63V44.87H485.46V47.87H477.63V51.77L486.81 51.8Z" fill="#663695"></path> <path d="M294.47 73.06H302.13C303.806 73.0113 305.47 73.3537 306.99 74.06C308.347 74.7228 309.483 75.7649 310.26 77.06C311.026 78.4127 311.429 79.9406 311.429 81.495C311.429 83.0495 311.026 84.5774 310.26 85.93C309.478 87.2053 308.347 88.2292 307 88.88C305.484 89.6036 303.82 89.9632 302.14 89.93H294.48L294.47 73.06ZM301.94 86.73C303.405 86.7941 304.839 86.2889 305.94 85.32C306.905 84.2821 307.441 82.9173 307.441 81.5C307.441 80.0828 306.905 78.718 305.94 77.68C304.839 76.7112 303.405 76.2059 301.94 76.27H298.37V86.73H301.94Z" fill="#663695"></path> <path d="M316.78 73.0601H320.68V89.9301H316.78V73.0601Z" fill="#663695"></path> <path d="M338.49 81.2301H342.06V88.0701C341.105 88.7878 340.027 89.3265 338.88 89.6601C337.701 90.0272 336.474 90.2159 335.24 90.2201C333.598 90.2482 331.975 89.863 330.52 89.1001C329.157 88.3914 328.018 87.3182 327.23 86.0001C326.44 84.6319 326.024 83.0799 326.024 81.5001C326.024 79.9202 326.44 78.3682 327.23 77.0001C328.024 75.6771 329.17 74.6005 330.54 73.8901C332.014 73.1313 333.652 72.7466 335.31 72.7701C336.68 72.7531 338.039 73.0081 339.31 73.5201C340.466 73.9988 341.493 74.7421 342.31 75.6901L339.87 78.0001C339.318 77.3919 338.642 76.9081 337.889 76.5805C337.136 76.253 336.321 76.0892 335.5 76.1001C334.506 76.0796 333.522 76.31 332.64 76.7701C331.803 77.2001 331.108 77.8635 330.64 78.6801C330.186 79.5488 329.966 80.5205 330 81.5001C329.983 82.4742 330.221 83.4359 330.69 84.2901C331.146 85.0976 331.818 85.7624 332.63 86.2101C333.503 86.6769 334.481 86.9111 335.47 86.8901C336.514 86.9007 337.545 86.6534 338.47 86.1701L338.49 81.2301Z" fill="#663695"></path> <path d="M348.08 73.0601H352V89.9301H348.1L348.08 73.0601Z" fill="#663695"></path> <path d="M361.89 76.2401H356.49V73.0601H371.19V76.2401H365.79V89.9301H361.89V76.2401Z" fill="#663695"></path> <path d="M386 86.3201H378.17L376.67 89.9301H372.67L380.19 73.0601H384L391.54 89.9301H387.44L386 86.3201ZM384.77 83.3201L382.1 76.8601L379.42 83.3201H384.77Z" fill="#663695"></path> <path d="M395.72 73.0601H399.62V86.7501H408.08V89.9301H395.72V73.0601Z" fill="#663695"></path> <path d="M260.6 21.0601H257.79V106.94H260.6V21.0601Z" fill="#663695"></path> </g> <defs> <clipPath id="clip0"> <rect width="486.81" height="128" fill="white"></rect> </clipPath> </defs> </svg> 